<svg width="69" height="66" viewBox="0 0 69 66" fill="none" xmlns="http://www.w3.org/2000/svg">
<path d="M0 20.062L2.51417 20.2465C5.12146 17.3254 6.14575 8.68515 21.5101 10.3763C20.9514 47.3973 4.56275 51.3023 5.58704 58.8971C5.95951 63.2019 9.40486 65.8463 13.1296 66C24.8934 65.6003 24.3657 49.8879 28.0283 10.2841H43.2065C42.3995 24.2438 40.1957 38.2035 39.9474 51.8865C40.1336 60.988 45.7206 65.8463 53.0769 65.9078C65.1822 66.3075 69 52.317 69 46.3518H66.3927C66.1444 51.2716 63.7544 54.8076 58.664 55.0229C44.7895 55.2073 52.4251 30.8547 52.5182 10.4685L69 10.5608L68.9069 0.137116C0.402238 -0.191612 9.09743 -1.52203 0 20.062Z" fill="white"/>
</svg>
