<svg width="81" height="78" viewBox="0 0 81 78" fill="none" xmlns="http://www.w3.org/2000/svg">
<path d="M0 23.7097L2.95142 23.9277C6.01215 20.4755 7.21458 10.2643 25.251 12.2629C24.5951 56.015 5.35628 60.63 6.5587 69.6057C6.99595 74.6932 11.0405 77.8183 15.413 78C29.2227 77.5276 28.6032 58.9584 32.9028 12.1539H50.7206C49.7733 28.6518 47.1862 45.1496 46.8947 61.3204C47.1134 72.0768 53.6721 77.8183 62.3077 77.891C76.5182 78.3634 81 61.8292 81 54.7794H77.9393C77.6478 60.5937 74.8421 64.7726 68.8664 65.027C52.5789 65.245 61.5425 36.4646 61.6518 12.3719L81 12.4809L80.8907 0.162046C0.472193 -0.22645 10.6796 -1.79877 0 23.7097Z" fill="#FF006B"/>
</svg>
